<svg width="47" height="47" viewBox="0 0 47 47" fill="none" xmlns="http://www.w3.org/2000/svg">
<g clip-path="url(#clip0_1_222)">
<path d="M26.6997 18.7266C25.488 18.7266 24.5491 19.6655 24.5491 20.8248C24.5491 21.984 25.488 22.923 26.6997 22.923C27.8066 22.923 28.7455 21.984 28.7455 20.8248C28.7455 19.6655 27.8066 18.7266 26.6997 18.7266ZM12.0122 18.7266C10.8005 18.7266 9.86157 19.6655 9.86157 20.8248C9.86157 21.984 10.8005 22.923 12.0122 22.923C13.1191 22.923 14.058 21.984 14.058 20.8248C14.058 19.6655 13.1191 18.7266 12.0122 18.7266Z" fill="#F4F4F4"/>
<path d="M43.538 14.7399C41.1111 11.3992 37.6116 8.9922 33.6239 7.9207V7.92594C32.7269 6.92929 31.7145 6.01132 30.5815 5.19302C21.9946 -1.04917 9.94032 0.854963 3.67191 9.4419C-1.37954 16.4185 -1.16448 25.8027 3.98664 32.4698L4.0286 39.4254C4.0286 39.5932 4.05483 39.7611 4.10729 39.9185C4.17327 40.1287 4.28004 40.3238 4.4215 40.4927C4.56297 40.6616 4.73634 40.8009 4.93171 40.9027C5.12708 41.0046 5.3406 41.0669 5.56007 41.0861C5.77955 41.1053 6.00065 41.0811 6.21075 41.0148L12.8516 38.9218C14.6088 39.546 16.4238 39.9027 18.2283 40.0024L18.202 40.0234C22.8758 43.4277 29.0026 44.4506 34.6206 42.5937L41.2876 44.7653C41.4555 44.8178 41.6286 44.8493 41.807 44.8493C42.7354 44.8493 43.4855 44.0992 43.4855 43.1707V36.1417C48.1068 29.868 48.2275 21.1971 43.538 14.7399ZM13.586 35.1975L12.9565 34.9352L7.76342 36.5613L7.71097 31.106L7.29133 30.6339C2.8536 25.2205 2.55985 17.4204 6.71432 11.6975C11.771 4.76289 21.4648 3.23119 28.3784 8.23543C35.313 13.2764 36.8499 22.9544 31.8404 29.847C27.6388 35.6119 20.1167 37.7416 13.586 35.1975ZM40.0759 34.3057L39.6563 34.8303L39.7087 40.2857L34.5681 38.5546L33.9386 38.8169C31.0011 39.908 27.8696 39.9971 24.9688 39.1841L24.9583 39.1788C28.9451 37.9562 32.4276 35.4732 34.8828 32.1026C38.8904 26.5791 39.5409 19.6392 37.2119 13.7223L37.2433 13.7432C38.4498 14.6088 39.5566 15.6893 40.4956 16.9955C44.3038 22.22 44.0888 29.333 40.0759 34.3057Z" fill="#F4F4F4"/>
<path d="M19.356 18.7266C18.1443 18.7266 17.2053 19.6655 17.2053 20.8248C17.2053 21.984 18.1443 22.923 19.356 22.923C20.4628 22.923 21.4018 21.984 21.4018 20.8248C21.4018 19.6655 20.4628 18.7266 19.356 18.7266Z" fill="#F4F4F4"/>
</g>
<defs>
<clipPath id="clip0_1_222">
<rect width="47" height="47" fill="white"/>
</clipPath>
</defs>
</svg>
