<svg width="25" height="25" viewBox="0 0 25 25" fill="none" xmlns="http://www.w3.org/2000/svg">
<g clip-path="url(#clip0_1_195)">
<path d="M11.1606 12.5C11.1606 12.8552 11.3017 13.1959 11.5529 13.447C11.8041 13.6982 12.1447 13.8393 12.4999 13.8393C12.8551 13.8393 13.1958 13.6982 13.4469 13.447C13.6981 13.1959 13.8392 12.8552 13.8392 12.5C13.8392 12.1448 13.6981 11.8041 13.4469 11.553C13.1958 11.3018 12.8551 11.1607 12.4999 11.1607C12.1447 11.1607 11.8041 11.3018 11.5529 11.553C11.3017 11.8041 11.1606 12.1448 11.1606 12.5ZM16.741 12.5C16.741 12.8552 16.8821 13.1959 17.1333 13.447C17.3844 13.6982 17.7251 13.8393 18.0803 13.8393C18.4355 13.8393 18.7761 13.6982 19.0273 13.447C19.2785 13.1959 19.4196 12.8552 19.4196 12.5C19.4196 12.1448 19.2785 11.8041 19.0273 11.553C18.7761 11.3018 18.4355 11.1607 18.0803 11.1607C17.7251 11.1607 17.3844 11.3018 17.1333 11.553C16.8821 11.8041 16.741 12.1448 16.741 12.5ZM5.58027 12.5C5.58027 12.8552 5.72137 13.1959 5.97254 13.447C6.2237 13.6982 6.56436 13.8393 6.91956 13.8393C7.27476 13.8393 7.61541 13.6982 7.86658 13.447C8.11774 13.1959 8.25884 12.8552 8.25884 12.5C8.25884 12.1448 8.11774 11.8041 7.86658 11.553C7.61541 11.3018 7.27476 11.1607 6.91956 11.1607C6.56436 11.1607 6.2237 11.3018 5.97254 11.553C5.72137 11.8041 5.58027 12.1448 5.58027 12.5ZM24.0289 7.65625C23.3984 6.15792 22.4943 4.81306 21.342 3.65792C20.1977 2.50948 18.8393 1.5966 17.3437 0.970982C15.8091 0.326451 14.1796 0 12.4999 0H12.4441C10.7533 0.00837054 9.11543 0.343192 7.57525 1.00167C6.09243 1.63371 4.74674 2.54821 3.6132 3.6942C2.47201 4.84654 1.57637 6.18583 0.956946 7.67857C0.315204 9.22433 -0.00845638 10.8677 -8.58462e-05 12.5586C0.00938193 14.4963 0.467804 16.4054 1.3392 18.1362V22.3772C1.3392 22.7176 1.47442 23.0441 1.71512 23.2848C1.95582 23.5255 2.28228 23.6607 2.62268 23.6607H6.86654C8.59728 24.5321 10.5064 24.9905 12.4441 25H12.5027C14.174 25 15.7951 24.6763 17.3213 24.043C18.8094 23.4248 20.1628 22.5226 21.3057 21.3867C22.4581 20.2455 23.3649 18.9118 23.9982 17.4247C24.6567 15.8845 24.9915 14.2467 24.9999 12.5558C25.0083 10.8566 24.679 9.20759 24.0289 7.65625ZM19.813 19.8772C17.8571 21.8136 15.2622 22.8795 12.4999 22.8795H12.4525C10.77 22.8711 9.09869 22.4526 7.62268 21.6657L7.38831 21.5402H3.45974V17.6116L3.33418 17.3772C2.54735 15.9012 2.12882 14.2299 2.12045 12.5474C2.10929 9.76562 3.17235 7.15402 5.12268 5.18694C7.07023 3.21987 9.67346 2.1317 12.4553 2.12054H12.5027C13.8978 2.12054 15.251 2.39118 16.5261 2.9269C17.7706 3.44866 18.8866 4.19922 19.8465 5.15904C20.8035 6.11607 21.5568 7.23493 22.0786 8.47935C22.6199 9.76841 22.8905 11.1356 22.885 12.5474C22.8682 15.3265 21.7773 17.9297 19.813 19.8772Z" fill="#F4F4F4"/>
</g>
<defs>
<clipPath id="clip0_1_195">
<rect width="25" height="25" fill="white"/>
</clipPath>
</defs>
</svg>
