<svg width="25" height="26" viewBox="0 0 25 26" fill="none" xmlns="http://www.w3.org/2000/svg">
<path d="M24.3952 5.32818C24.0073 4.28552 23.448 3.34067 22.7486 2.54652C22.0486 1.75 21.2234 1.11702 20.3177 0.682001C19.3786 0.229118 18.3713 -0.0026936 17.3544 2.36135e-05C15.9277 2.36135e-05 14.5358 0.453555 13.3262 1.31023C13.0368 1.51516 12.7619 1.74024 12.5014 1.98549C12.241 1.74024 11.9661 1.51516 11.6767 1.31023C10.4671 0.453555 9.07511 2.36135e-05 7.64844 2.36135e-05C6.62113 2.36135e-05 5.62564 0.228469 4.68514 0.682001C3.77647 1.11874 2.95751 1.74696 2.25431 2.54652C1.55399 3.33977 0.994552 4.28485 0.607708 5.32818C0.205463 6.4133 0 7.56561 0 8.75151C0 9.87022 0.196782 11.036 0.587452 12.2219C0.914457 13.2129 1.38326 14.2409 1.98229 15.279C2.93147 16.9218 4.2366 18.6351 5.85715 20.372C8.54264 23.2511 11.2021 25.2399 11.315 25.3205L12.0008 25.8312C12.3047 26.0563 12.6953 26.0563 12.9992 25.8312L13.685 25.3205C13.7979 25.2366 16.4544 23.2511 19.1428 20.372C20.7634 18.6351 22.0685 16.9218 23.0177 15.279C23.6167 14.2409 24.0884 13.2129 24.4125 12.2219C24.8032 11.036 25 9.87022 25 8.75151C25.0029 7.56561 24.7974 6.4133 24.3952 5.32818ZM12.5014 23.1738C12.5014 23.1738 2.19933 15.5108 2.19933 8.75151C2.19933 5.32818 4.63884 2.55324 7.64844 2.55324C9.76385 2.55324 11.5985 3.92391 12.5014 5.92617C13.4043 3.92391 15.239 2.55324 17.3544 2.55324C20.364 2.55324 22.8035 5.32818 22.8035 8.75151C22.8035 15.5108 12.5014 23.1738 12.5014 23.1738Z" fill="#DB0031"/>
</svg>
