<svg width="47" height="47" viewBox="0 0 47 47" fill="none" xmlns="http://www.w3.org/2000/svg">
<g clip-path="url(#clip0_1_226)">
<path d="M45.1536 29.4642L41.7177 26.5267C41.8803 25.5301 41.9643 24.5124 41.9643 23.4948C41.9643 22.4772 41.8803 21.4595 41.7177 20.4629L45.1536 17.5254C45.4127 17.3035 45.5982 17.0081 45.6853 16.6782C45.7725 16.3484 45.7571 15.9999 45.6414 15.679L45.5942 15.5426C44.6483 12.899 43.2319 10.4483 41.4135 8.30898L41.3191 8.19883C41.0985 7.93945 40.8045 7.75299 40.4758 7.66403C40.1471 7.57508 39.7992 7.58779 39.4779 7.7005L35.2133 9.21646C33.6396 7.92606 31.8824 6.90843 29.9835 6.19503L29.1599 1.73633C29.0978 1.40084 28.935 1.09219 28.6933 0.851395C28.4516 0.6106 28.1423 0.449056 27.8066 0.388225L27.6649 0.361998C24.932 -0.131083 22.0575 -0.131083 19.3245 0.361998L19.1829 0.388225C18.8472 0.449056 18.5379 0.6106 18.2962 0.851395C18.0544 1.09219 17.8917 1.40084 17.8296 1.73633L17.0008 6.21602C15.117 6.92956 13.3628 7.94665 11.8077 9.22695L7.51159 7.7005C7.19039 7.58689 6.84222 7.57372 6.51334 7.66273C6.18447 7.75174 5.89047 7.93872 5.67041 8.19883L5.57599 8.30898C3.7597 10.4498 2.34357 12.9001 1.3953 15.5426L1.34809 15.679C1.11204 16.3347 1.30612 17.069 1.83592 17.5254L5.31371 20.4944C5.1511 21.4805 5.07242 22.4877 5.07242 23.4896C5.07242 24.4967 5.1511 25.5039 5.31371 26.4848L1.83592 29.4537C1.57677 29.6756 1.39129 29.9711 1.30415 30.3009C1.21701 30.6307 1.23234 30.9793 1.34809 31.3002L1.3953 31.4366C2.34474 34.0803 3.75054 36.5195 5.57599 38.6701L5.67041 38.7803C5.89101 39.0397 6.18502 39.2261 6.51369 39.3151C6.84237 39.4041 7.19029 39.3913 7.51159 39.2786L11.8077 37.7522C13.3709 39.0373 15.1176 40.055 17.0008 40.7631L17.8296 45.2428C17.8917 45.5783 18.0544 45.8869 18.2962 46.1277C18.5379 46.3685 18.8472 46.5301 19.1829 46.5909L19.3245 46.6171C22.0826 47.1129 24.9069 47.1129 27.6649 46.6171L27.8066 46.5909C28.1423 46.5301 28.4516 46.3685 28.6933 46.1277C28.935 45.8869 29.0978 45.5783 29.1599 45.2428L29.9835 40.7841C31.8816 40.0726 33.6488 39.0516 35.2133 37.7627L39.4779 39.2786C39.7991 39.3922 40.1473 39.4054 40.4761 39.3164C40.805 39.2274 41.099 39.0404 41.3191 38.7803L41.4135 38.6701C43.2389 36.5142 44.6447 34.0803 45.5942 31.4366L45.6414 31.3002C45.8774 30.655 45.6834 29.9206 45.1536 29.4642ZM37.9934 21.0819C38.1245 21.8739 38.1927 22.687 38.1927 23.5001C38.1927 24.3131 38.1245 25.1262 37.9934 25.9182L37.6472 28.0217L41.5656 31.3736C40.9716 32.7421 40.2218 34.0376 39.331 35.2343L34.4632 33.5085L32.8161 34.8619C31.5624 35.89 30.1671 36.6978 28.6563 37.2643L26.6578 38.0145L25.7188 43.1026C24.2374 43.2705 22.7416 43.2705 21.2601 43.1026L20.3212 38.004L18.3384 37.2434C16.8434 36.6768 15.4533 35.869 14.2101 34.8461L12.563 33.4876L7.66371 35.2291C6.77197 34.0278 6.02711 32.7322 5.42912 31.3684L9.3895 27.985L9.04854 25.8868C8.92264 25.1052 8.85445 24.2974 8.85445 23.5001C8.85445 22.6975 8.9174 21.8949 9.04854 21.1133L9.3895 19.0151L5.42912 15.6318C6.02186 14.2627 6.77197 12.9723 7.66371 11.771L12.563 13.5126L14.2101 12.154C15.4533 11.1311 16.8434 10.3233 18.3384 9.75675L20.3264 9.00664L21.2654 3.90798C22.7394 3.74012 24.2449 3.74012 25.7241 3.90798L26.663 8.99615L28.6616 9.74626C30.1671 10.3128 31.5676 11.1206 32.8213 12.1487L34.4684 13.5021L39.3363 11.7763C40.228 12.9775 40.9729 14.2732 41.5709 15.637L37.6524 18.9889L37.9934 21.0819ZM23.5 13.7434C18.4013 13.7434 14.2678 17.8768 14.2678 22.9755C14.2678 28.0742 18.4013 32.2076 23.5 32.2076C28.5986 32.2076 32.7321 28.0742 32.7321 22.9755C32.7321 17.8768 28.5986 13.7434 23.5 13.7434ZM27.6545 27.13C27.1096 27.6764 26.462 28.1098 25.749 28.405C25.036 28.7003 24.2717 28.8517 23.5 28.8505C21.9316 28.8505 20.4576 28.2368 19.3455 27.13C18.7991 26.5851 18.3657 25.9375 18.0705 25.2245C17.7752 24.5115 17.6238 23.7472 17.625 22.9755C17.625 21.4071 18.2387 19.9331 19.3455 18.821C20.4576 17.709 21.9316 17.1005 23.5 17.1005C25.0684 17.1005 26.5424 17.709 27.6545 18.821C28.2009 19.3659 28.6342 20.0135 28.9295 20.7265C29.2248 21.4395 29.3762 22.2038 29.375 22.9755C29.375 24.5439 28.7613 26.0179 27.6545 27.13Z" fill="#F4F4F4"/>
</g>
<defs>
<clipPath id="clip0_1_226">
<rect width="47" height="47" fill="white"/>
</clipPath>
</defs>
</svg>
