<svg width="47" height="47" viewBox="0 0 47 47" fill="none" xmlns="http://www.w3.org/2000/svg">
<g clip-path="url(#clip0_1_218)">
<path d="M46.2919 23.1328L26.0231 2.87458L24.6645 1.51599C24.355 1.20848 23.9364 1.03589 23.5 1.03589C23.0637 1.03589 22.6451 1.20848 22.3355 1.51599L0.70818 23.1328C0.390988 23.4488 0.140306 23.8251 -0.029069 24.2395C-0.198444 24.6539 -0.28308 25.0981 -0.277981 25.5458C-0.256999 27.3922 1.27994 28.8662 3.12637 28.8662H5.35572L5.35572 45.9509L41.6443 45.9509L41.6443 28.8662H43.9209C44.8179 28.8662 45.6624 28.5148 46.2971 27.88C46.6097 27.5685 46.8573 27.1981 47.0257 26.7902C47.194 26.3823 47.2798 25.9451 47.278 25.5038C47.278 24.6121 46.9266 23.7675 46.2919 23.1328ZM26.4375 42.1741H20.5625V31.4732H26.4375V42.1741ZM37.8676 25.0894L37.8676 42.1741L29.7947 42.1741V30.2143C29.7947 29.055 28.8557 28.1161 27.6965 28.1161H19.3036C18.1443 28.1161 17.2054 29.055 17.2054 30.2143V42.1741H9.13251L9.13251 25.0894H4.0968L23.5053 5.69668L24.717 6.9084L42.9085 25.0894H37.8676Z" fill="#F4F4F4"/>
</g>
<defs>
<clipPath id="clip0_1_218">
<rect width="47" height="47" fill="white"/>
</clipPath>
</defs>
</svg>
