<svg width="47" height="47" viewBox="0 0 47 47" fill="none" xmlns="http://www.w3.org/2000/svg">
<path d="M39.4464 36.9286H38.1875L38.1875 19.0938C38.1875 11.6923 32.7164 5.57604 25.5982 4.55841V2.51789C25.5982 1.35863 24.6593 0.419678 23.5 0.419678C22.3407 0.419678 21.4018 1.35863 21.4018 2.51789V4.55841C14.2836 5.57604 8.8125 11.6923 8.8125 19.0938L8.8125 36.9286H7.55357C6.62511 36.9286 5.875 37.6787 5.875 38.6072V40.2858C5.875 40.5166 6.06384 40.7054 6.29464 40.7054H17.625C17.625 43.9471 20.2583 46.5804 23.5 46.5804C26.7417 46.5804 29.375 43.9471 29.375 40.7054L40.7054 40.7054C40.9362 40.7054 41.125 40.5166 41.125 40.2858V38.6072C41.125 37.6787 40.3749 36.9286 39.4464 36.9286ZM23.5 43.2233C22.1099 43.2233 20.9821 42.0955 20.9821 40.7054H26.0179C26.0179 42.0955 24.8901 43.2233 23.5 43.2233ZM12.5893 36.9286L12.5893 19.0938C12.5893 16.1773 13.7223 13.4391 15.7838 11.3776C17.8453 9.31611 20.5835 8.18307 23.5 8.18307C26.4165 8.18307 29.1547 9.31611 31.2162 11.3776C33.2777 13.4391 34.4107 16.1773 34.4107 19.0938V36.9286H12.5893Z" fill="#F4F4F4"/>
</svg>
